<?xml version="1.0" encoding="UTF-8"?>
<svg width="710px" height="152px" viewBox="0 0 710 152" version="1.1" xmlns="http://www.w3.org/2000/svg" xmlns:xlink="http://www.w3.org/1999/xlink">
    <!-- Generator: Sketch 56.3 (81716) - https://sketch.com -->
    <title>Group 28</title>
    <desc>Created with Sketch.</desc>
    <defs>
        <polygon id="path-1" points="0.00114 0 152.00114 0 152.00114 151.99924 0.00114 151.99924"></polygon>
        <polygon id="path-3" points="0 152 710 152 710 0 0 0"></polygon>
    </defs>
    <g id="Page-1" stroke="none" stroke-width="1" fill="none" fill-rule="evenodd">
        <g id="Logo" transform="translate(-605.000000, -464.000000)">
            <g id="Group-28" transform="translate(605.000000, 464.000000)">
                <g id="Group-27">
                    <path d="M78,68 L78,75.6 C82.14,75.6 85.5,79.0048 85.5,83.2 L93,83.2 L93,106 L108,106 L108,75.6 C108,71.4048 104.64,68 100.5,68 L78,68 Z" id="Fill-1" fill="#FFFFFF"></path>
                    <path d="M77.4,90.75 C73.2048,90.75 69.8,87.334 69.8,83.125 L69.8,60.25 L69.8,52.625 L69.8,45 L47,45 C47,52.625 51.7196,60.25 54.6,60.25 L54.6,67.875 L47,67.875 L47,83.125 L54.6,83.125 C54.6,95.759625 64.8106,106 77.4,106 L85,106 L85,90.75 L77.4,90.75 Z" id="Fill-3" fill="#FFFFFF"></path>
                    <g id="Group-7">
                        <mask id="mask-2" fill="white">
                            <use xlink:href="#path-1"></use>
                        </mask>
                        <g id="Clip-6"></g>
                        <path d="M76.00114,15.19924 C42.47754,15.19924 15.20114,42.47564 15.20114,75.99924 C15.20114,109.52284 42.47754,136.79924 76.00114,136.79924 C109.52474,136.79924 136.80114,109.52284 136.80114,75.99924 C136.80114,42.47564 109.52474,15.19924 76.00114,15.19924 M76.00114,151.99924 C34.09474,151.99924 0.00114,117.90564 0.00114,75.99924 C0.00114,34.09284 34.09474,-0.00076 76.00114,-0.00076 C117.90754,-0.00076 152.00114,34.09284 152.00114,75.99924 C152.00114,117.90564 117.90754,151.99924 76.00114,151.99924" id="Fill-5" fill="#FFFFFF" mask="url(#mask-2)"></path>
                    </g>
                    <path d="M202.314333,60.9680016 L202.314333,82.5981318 C202.314333,89.6030011 204.85974,93.1073239 213.579835,93.2281626 C215.396364,93.2281626 217.696294,93.1073239 220,92.8656464 L220,106.64126 C216.854119,106.879161 213.704462,107 211.038205,107 C194.44019,106.879161 185.720095,98.3033887 185.720095,83.1985491 L185.720095,60.9680016 L177,60.9680016 L177,47.7965815 L186.686896,47.7965815 L186.686896,31 L202.314333,31 L202.314333,47.7965815 L220,47.7965815 L220,60.9680016 L202.314333,60.9680016 Z" id="Fill-8" fill="#FFFFFF"></path>
                    <path d="M241.293072,71.5235327 L267.434771,71.5235327 C266.339216,62.9868117 261.721961,59.4447778 254.913595,59.4447778 C248.222745,59.4447778 242.873856,63.2270142 241.293072,71.5235327 L241.293072,71.5235327 Z M283,81.1621351 L241.050458,81.1621351 C242.26732,90.312707 247.616209,94.9489968 255.398824,94.9489968 C263.424052,94.9489968 266.339216,90.8007375 267.313464,87.6285393 L282.757386,87.6285393 C280.808889,97.9953747 272.541046,108 254.545882,108 C236.429412,108 225,95.4332146 225,77.623914 C225,59.5667854 237.524967,47 254.792288,47 C272.904967,47 283,59.688793 283,77.9899369 L283,81.1621351 Z" id="Fill-10" fill="#FFFFFF"></path>
                    <polygon id="Fill-12" fill="#FFFFFF" points="338 93.6551856 338 107 288 107 288 94.757367 317.420202 60.3486414 288.966329 60.3486414 288.966329 47 337.275253 47 337.275253 59.1239954 308.459006 93.6551856"></polygon>
                    <path d="M360.735015,77.6201013 C360.735015,87.5027189 366.191099,94.2169511 374.437612,94.2169511 C382.926114,94.2169511 388.143991,87.5027189 388.143991,77.6201013 C388.143991,67.4972811 382.926114,60.7868617 374.437612,60.7868617 C366.191099,60.7868617 360.735015,67.4972811 360.735015,77.6201013 M405,77.2540784 C405,95.1891993 392.874109,108 374.437612,108 C356.246885,108 344,95.8030502 344,77.8641165 C344,59.8108007 356.246885,47 374.437612,47 C392.874109,47 405,59.3227702 405,77.2540784" id="Fill-14" fill="#FFFFFF"></path>
                    <path d="M436.256431,108 C419.579575,108 411.120574,101.167573 411,88.7227952 L425.141039,88.8486155 C425.50276,93.7289206 428.765787,96.4092756 436.019051,96.4092756 C443.023632,96.4092756 446.04928,94.3351459 445.924938,90.9227452 C445.924938,79.6942309 412.205737,88.8486155 412.205737,64.6911057 C412.205737,53.7104194 421.878012,47 437.465936,47 C452.571565,47 461.030567,54.0764423 461.151141,65.9111819 L446.772722,65.9111819 C446.407233,61.0308769 443.144206,58.5907244 437.345363,58.5907244 C431.060456,58.5907244 428.283492,60.7868617 428.283492,64.2030752 C428.283492,75.1837615 461.998925,65.5451591 461.998925,90.4347147 C462.119499,101.537409 452.089271,108 436.256431,108" id="Fill-16" fill="#FFFFFF"></path>
                    <path d="M490,97.9981171 C490,103.902843 485.851006,108 479.501903,108 C473.1528,108 469,103.902843 469,97.9981171 C469,92.0971568 473.1528,88 479.501903,88 C485.851006,88 490,92.0971568 490,97.9981171" id="Fill-18" fill="#FFFFFF"></path>
                    <path d="M553,68.845497 L553,107 L536.319553,107 L536.319553,73.0853068 C536.319553,66.0593362 532.672247,61.4561141 525.85205,61.4561141 C518.549848,61.4561141 513.801898,66.4227485 513.801898,73.8121313 L513.801898,107 L497,107 L497,21 L513.555202,21 L513.555202,56.3683423 C517.088648,50.9209437 523.051101,47.0407606 532.057404,47.0407606 C545.694002,47.0407606 553,56.7355401 553,68.845497" id="Fill-20" fill="#FFFFFF"></path>
                    <path d="M575.294137,71.5235327 L601.437545,71.5235327 C600.338127,62.9868117 595.72057,59.4447778 588.911759,59.4447778 C582.224263,59.4447778 576.875025,63.2270142 575.294137,71.5235327 L575.294137,71.5235327 Z M617,81.1621351 L575.051507,81.1621351 C576.264658,90.312707 581.613896,94.9489968 589.397019,94.9489968 C597.422773,94.9489968 600.338127,90.8007375 601.312439,87.6285393 L616.75737,87.6285393 C614.812537,97.9953747 606.540362,108 588.547814,108 C570.430159,108 559,95.4332146 559,77.623914 C559,59.5667854 571.521995,47 588.790444,47 C606.908099,47 617,59.688793 617,77.9899369 L617,81.1621351 Z" id="Fill-22" fill="#FFFFFF"></path>
                    <mask id="mask-4" fill="white">
                        <use xlink:href="#path-3"></use>
                    </mask>
                    <g id="Clip-25"></g>
                    <polygon id="Fill-24" fill="#FFFFFF" mask="url(#mask-4)" points="624 107 641 107 641 21 624 21"></polygon>
                    <path d="M693.111539,77.2452585 C693.111539,67.3667668 688.004844,61.0250191 679.86747,61.0250191 C670.631474,61.0250191 665.649795,68.8302471 665.649795,75.5378649 L665.649795,79.3185222 C665.649795,86.5139667 670.873929,93.9533247 679.746243,93.9533247 C687.644951,93.9533247 693.111539,87.3676635 693.111539,77.2452585 M710,76.5173295 C710,95.0509349 699.669172,107.974533 683.511862,107.974533 C674.760775,107.974533 668.930506,104.319643 665.649795,98.8315922 L665.649795,132 L649,132 L649,47.4878267 L665.164886,47.4878267 L665.528568,56.2687082 C668.930506,50.9064251 675.128245,47 684.117998,47 C699.188051,47 710,57.614043 710,76.5173295" id="Fill-26" fill="#FFFFFF" mask="url(#mask-4)"></path>
                    <path d="M202.314333,60.9680016 L202.314333,82.5981318 C202.314333,89.6030011 204.85974,93.1073239 213.579835,93.2281626 C215.396364,93.2281626 217.696294,93.1073239 220,92.8656464 L220,106.64126 C216.854119,106.879161 213.704462,107 211.038205,107 C194.44019,106.879161 185.720095,98.3033887 185.720095,83.1985491 L185.720095,60.9680016 L177,60.9680016 L177,47.7965815 L186.686896,47.7965815 L186.686896,31 L202.314333,31 L202.314333,47.7965815 L220,47.7965815 L220,60.9680016 L202.314333,60.9680016 Z" id="Fill-8" fill="#FFFFFF" mask="url(#mask-4)"></path>
                    <path d="M241.293072,71.5235327 L267.434771,71.5235327 C266.339216,62.9868117 261.721961,59.4447778 254.913595,59.4447778 C248.222745,59.4447778 242.873856,63.2270142 241.293072,71.5235327 L241.293072,71.5235327 Z M283,81.1621351 L241.050458,81.1621351 C242.26732,90.312707 247.616209,94.9489968 255.398824,94.9489968 C263.424052,94.9489968 266.339216,90.8007375 267.313464,87.6285393 L282.757386,87.6285393 C280.808889,97.9953747 272.541046,108 254.545882,108 C236.429412,108 225,95.4332146 225,77.623914 C225,59.5667854 237.524967,47 254.792288,47 C272.904967,47 283,59.688793 283,77.9899369 L283,81.1621351 Z" id="Fill-10" fill="#FFFFFF" mask="url(#mask-4)"></path>
                    <polygon id="Fill-12" fill="#FFFFFF" mask="url(#mask-4)" points="338 93.6551856 338 107 288 107 288 94.757367 317.420202 60.3486414 288.966329 60.3486414 288.966329 47 337.275253 47 337.275253 59.1239954 308.459006 93.6551856"></polygon>
                    <path d="M360.735015,77.6201013 C360.735015,87.5027189 366.191099,94.2169511 374.437612,94.2169511 C382.926114,94.2169511 388.143991,87.5027189 388.143991,77.6201013 C388.143991,67.4972811 382.926114,60.7868617 374.437612,60.7868617 C366.191099,60.7868617 360.735015,67.4972811 360.735015,77.6201013 M405,77.2540784 C405,95.1891993 392.874109,108 374.437612,108 C356.246885,108 344,95.8030502 344,77.8641165 C344,59.8108007 356.246885,47 374.437612,47 C392.874109,47 405,59.3227702 405,77.2540784" id="Fill-14" fill="#FFFFFF" mask="url(#mask-4)"></path>
                    <path d="M436.256431,108 C419.579575,108 411.120574,101.167573 411,88.7227952 L425.141039,88.8486155 C425.50276,93.7289206 428.765787,96.4092756 436.019051,96.4092756 C443.023632,96.4092756 446.04928,94.3351459 445.924938,90.9227452 C445.924938,79.6942309 412.205737,88.8486155 412.205737,64.6911057 C412.205737,53.7104194 421.878012,47 437.465936,47 C452.571565,47 461.030567,54.0764423 461.151141,65.9111819 L446.772722,65.9111819 C446.407233,61.0308769 443.144206,58.5907244 437.345363,58.5907244 C431.060456,58.5907244 428.283492,60.7868617 428.283492,64.2030752 C428.283492,75.1837615 461.998925,65.5451591 461.998925,90.4347147 C462.119499,101.537409 452.089271,108 436.256431,108" id="Fill-16" fill="#FFFFFF" mask="url(#mask-4)"></path>
                    <path d="M490,97.9981171 C490,103.902843 485.851006,108 479.501903,108 C473.1528,108 469,103.902843 469,97.9981171 C469,92.0971568 473.1528,88 479.501903,88 C485.851006,88 490,92.0971568 490,97.9981171" id="Fill-18" fill="#FFFFFF" mask="url(#mask-4)"></path>
                    <path d="M553,68.845497 L553,107 L536.319553,107 L536.319553,73.0853068 C536.319553,66.0593362 532.672247,61.4561141 525.85205,61.4561141 C518.549848,61.4561141 513.801898,66.4227485 513.801898,73.8121313 L513.801898,107 L497,107 L497,21 L513.555202,21 L513.555202,56.3683423 C517.088648,50.9209437 523.051101,47.0407606 532.057404,47.0407606 C545.694002,47.0407606 553,56.7355401 553,68.845497" id="Fill-20" fill="#FFFFFF" mask="url(#mask-4)"></path>
                    <path d="M575.294137,71.5235327 L601.437545,71.5235327 C600.338127,62.9868117 595.72057,59.4447778 588.911759,59.4447778 C582.224263,59.4447778 576.875025,63.2270142 575.294137,71.5235327 L575.294137,71.5235327 Z M617,81.1621351 L575.051507,81.1621351 C576.264658,90.312707 581.613896,94.9489968 589.397019,94.9489968 C597.422773,94.9489968 600.338127,90.8007375 601.312439,87.6285393 L616.75737,87.6285393 C614.812537,97.9953747 606.540362,108 588.547814,108 C570.430159,108 559,95.4332146 559,77.623914 C559,59.5667854 571.521995,47 588.790444,47 C606.908099,47 617,59.688793 617,77.9899369 L617,81.1621351 Z" id="Fill-22" fill="#FFFFFF" mask="url(#mask-4)"></path>
                    <polygon id="Fill-24" fill="#FFFFFF" mask="url(#mask-4)" points="624 107 641 107 641 21 624 21"></polygon>
                    <path d="M693.111539,77.2452585 C693.111539,67.3667668 688.004844,61.0250191 679.86747,61.0250191 C670.631474,61.0250191 665.649795,68.8302471 665.649795,75.5378649 L665.649795,79.3185222 C665.649795,86.5139667 670.873929,93.9533247 679.746243,93.9533247 C687.644951,93.9533247 693.111539,87.3676635 693.111539,77.2452585 M710,76.5173295 C710,95.0509349 699.669172,107.974533 683.511862,107.974533 C674.760775,107.974533 668.930506,104.319643 665.649795,98.8315922 L665.649795,132 L649,132 L649,47.4878267 L665.164886,47.4878267 L665.528568,56.2687082 C668.930506,50.9064251 675.128245,47 684.117998,47 C699.188051,47 710,57.614043 710,76.5173295" id="Fill-26" fill="#FFFFFF" mask="url(#mask-4)"></path>
                </g>
            </g>
        </g>
    </g>
</svg>